Coordinates
version=1
nRows=24
nColumns=38
inDegrees=no

Units are S.I. units (second, meters, Newtons, ...)
If the header above contains a line with 'inDegrees', this indicates whether rotational values are in degrees (yes) or radians (no).

endheader
time	pelvis_tilt	pelvis_list	pelvis_rotation	pelvis_tx	pelvis_ty	pelvis_tz	hip_flexion_r	hip_adduction_r	hip_rotation_r	knee_angle_r	ankle_angle_r	subtalar_angle_r	mtp_angle_r	hip_flexion_l	hip_adduction_l	hip_rotation_l	knee_angle_l	ankle_angle_l	subtalar_angle_l	mtp_angle_l	lumbar_extension	lumbar_bending	lumbar_rotation	arm_flex_r	arm_add_r	arm_rot_r	elbow_flex_r	pro_sup_r	wrist_flex_r	wrist_dev_r	arm_flex_l	arm_add_l	arm_rot_l	elbow_flex_l	pro_sup_l	wrist_flex_l	wrist_dev_l
95	-2.06223	1.33292	1.12474	0.872506	-0.725209	1.00416	0.0486389	0.0872684	-0.46834	0	-0.182382	0	0	0.515105	-0.192813	-0.47735	0.28078	-0.229255	0	0	0.0902513	0.145406	-0.0163131	-0.157316	-0.252831	0.0965966	0.450411	1.5708	0	0	-0.0214713	-0.185614	0.407979	0.302766	1.16736	0	0
95.01	-2.03445	1.33263	1.11625	0.877574	-0.725512	1.00347	0.043406	0.0886589	-0.470451	0	-0.180092	0	0	0.515376	-0.188194	-0.501316	0.266095	-0.223291	0	0	0.0887972	0.143219	-0.0174278	-0.162682	-0.251019	0.0846573	0.455	1.5708	0	0	-0.0221515	-0.186406	0.406043	0.29875	1.16482	0	0
95.02	-2.0095	1.33243	1.11066	0.882804	-0.725846	1.00277	0.0387683	0.0890006	-0.474795	0	-0.175837	0	0	0.514755	-0.181323	-0.525339	0.249706	-0.213481	0	0	0.0879008	0.139906	-0.0181613	-0.167515	-0.249352	0.075883	0.457633	1.5708	0	0	-0.0226832	-0.187485	0.404794	0.29505	1.15927	0	0
95.03	-1.98482	1.33173	1.10494	0.888084	-0.726241	1.00204	0.0351704	0.0893709	-0.47966	0	-0.168051	0	0	0.514069	-0.17366	-0.549346	0.232955	-0.198736	0	0	0.0875346	0.136547	-0.01858	-0.17151	-0.247784	0.0690183	0.458697	1.5708	0	0	-0.0228398	-0.18921	0.409075	0.291141	1.1469	0	0
95.04	-1.95955	1.32933	1.09849	0.893376	-0.726636	1.0011	0.0332993	0.0908922	-0.482979	0	-0.163493	0	0	0.516162	-0.168143	-0.575886	0.22177	-0.189527	0	0	0.0887155	0.13384	-0.0199526	-0.174111	-0.247227	0.0691442	0.457954	1.5708	0	0	-0.0243398	-0.191017	0.410168	0.287813	1.13911	0	0
95.05	-1.93806	1.32739	1.09486	0.898795	-0.727168	1.00014	0.0317259	0.0913034	-0.486233	0	-0.157805	0	0	0.517175	-0.16153	-0.599041	0.211083	-0.178538	0	0	0.0899807	0.129659	-0.0207709	-0.175534	-0.246768	0.0724919	0.455132	1.5708	0	0	-0.0263872	-0.193383	0.412533	0.284363	1.13009	0	0
95.06	-1.91705	1.32577	1.09145	0.904344	-0.727767	0.999198	0.0301612	0.0913425	-0.489699	0	-0.151674	0	0	0.517569	-0.154999	-0.618169	0.202423	-0.167714	0	0	0.0908434	0.124879	-0.0216687	-0.175993	-0.246516	0.0773197	0.45163	1.5708	0	0	-0.0287088	-0.196221	0.415586	0.281406	1.11996	0	0
95.07	-1.89138	1.32411	1.08316	0.910034	-0.728329	0.998246	0.0281986	0.0922661	-0.491353	0	-0.146084	0	0	0.517336	-0.14991	-0.633444	0.196342	-0.158721	0	0	0.0908267	0.121271	-0.0222773	-0.176249	-0.246878	0.0831939	0.448668	1.5708	0	0	-0.030987	-0.198817	0.418019	0.278994	1.1099	0	0
95.08	-1.85997	1.32289	1.0694	0.915772	-0.728947	0.997372	0.0246771	0.0945289	-0.489712	0	-0.140879	0	0	0.51584	-0.146776	-0.642697	0.193779	-0.15106	0	0	0.0895753	0.118433	-0.0224601	-0.17635	-0.246719	0.0889904	0.445238	1.5708	0	0	-0.0327034	-0.201646	0.419928	0.276973	1.09991	0	0
95.09	-1.83105	1.32155	1.05902	0.921706	-0.729498	0.996401	0.022504	0.0959623	-0.495814	0	-0.125212	0	0	0.514272	-0.143364	-0.645063	0.194582	-0.138606	0	0	0.0902221	0.114733	-0.0226738	-0.173674	-0.249644	0.117341	0.435254	1.5708	0	0	-0.0253551	-0.210276	0.514158	0.265488	0.97909	0	0
95.1	-1.7991	1.31996	1.04466	0.927771	-0.730141	0.995321	0.0208593	0.0978748	-0.506282	0.00799193	-0.123007	0	0	0.511331	-0.14243	-0.646424	0.198466	-0.136032	0	0	0.0875577	0.111183	-0.0251374	-0.171974	-0.249663	0.122114	0.433296	1.5708	0	0	-0.0269011	-0.215837	0.528509	0.26429	0.970881	0	0
95.11	-1.76968	1.31767	1.034	0.934171	-0.730747	0.994197	0.0211154	0.0986138	-0.52575	0.025019	-0.118329	0	0	0.508969	-0.141189	-0.64135	0.204518	-0.133485	0	0	0.0891433	0.108517	-0.0238272	-0.174296	-0.250215	0.128245	0.430359	1.5708	0	0	-0.029613	-0.215453	0.513166	0.26108	0.968706	0	0
95.12	-1.73477	1.32106	1.01737	0.9404	-0.731295	0.993383	0.0158101	0.0972124	-0.544365	0.0434645	-0.109288	0	0	0.501314	-0.139692	-0.63574	0.213233	-0.130791	0	0	0.0799313	0.109182	-0.0198093	-0.0338595	-0.424409	1.1705	0.471172	0.676331	0	0	-0.0223645	-0.218869	0.567899	0.253828	0.909481	0	0
95.13	-1.76005	1.2069	0.999789	0.948852	-0.736334	0.980747	0.122109	0.148629	-0.468233	0.0653111	-0.102079	0	0	0.607796	-0.222774	-0.664054	0.258561	-0.0939264	0	0	0.230566	0.178377	0.0291177	-0.0896309	-0.462876	1.17661	0.498097	0.668226	0	0	-0.0659087	-0.191972	0.589823	0.233479	0.894823	0	0
95.14	-1.68201	1.3199	0.997483	0.953461	-0.731974	0.991612	0.0154932	0.0934266	-0.56508	0.0830446	-0.0988066	0	0	0.494971	-0.135658	-0.613844	0.221991	-0.130235	0	0	0.0723996	0.0964619	-0.0200682	-0.0235801	-0.40487	1.1943	0.437275	0.667082	0	0	-0.0280211	-0.225626	0.552563	0.252625	0.917999	0	0
95.15	-1.65365	1.31939	0.986938	0.960038	-0.732154	0.99105	0.0145787	0.0925801	-0.565426	0.101266	-0.0965286	0	0	0.493679	-0.135343	-0.60295	0.230851	-0.131778	0	0	0.0673996	0.0900892	-0.0218916	-0.0192246	-0.392374	1.19632	0.417692	0.666357	0	0	-0.0299047	-0.229975	0.551249	0.252712	0.913544	0	0
95.16	-1.61839	1.32019	0.972291	0.966666	-0.732237	0.990905	0.0116589	0.0928529	-0.562619	0.119668	-0.0941579	0	0	0.491599	-0.135608	-0.589436	0.243704	-0.131983	0	0	0.0604298	0.0840238	-0.0251471	-0.014834	-0.37899	1.19749	0.396839	0.669651	0	0	-0.0299403	-0.234561	0.553424	0.251348	0.90822	0	0
95.17	-1.59202	1.32288	0.966545	0.973558	-0.73201	0.990874	0.0117549	0.0868994	-0.571677	0.147591	-0.0908975	0	0	0.488897	-0.13259	-0.578906	0.258288	-0.129737	0	0	0.0532467	0.0753479	-0.0279181	-0.0117741	-0.365309	1.19216	0.376472	0.674405	0	0	-0.0285562	-0.238506	0.560624	0.247616	0.899821	0	0
95.18	-1.58846	1.326	0.982347	0.980675	-0.731316	0.990557	0.0193694	0.070824	-0.596561	0.188973	-0.0850647	0	0	0.488281	-0.123519	-0.57211	0.271734	-0.126707	0	0	0.0484901	0.0615682	-0.0306913	-0.0124983	-0.349432	1.158	0.354932	0.71047	0	0	-0.0170517	-0.252147	0.707651	0.239266	0.755642	0	0
95.19	-1.58449	1.3287	0.997631	0.98804	-0.730615	0.990484	0.0268067	0.0553679	-0.609078	0.229641	-0.0823212	0	0	0.486949	-0.11425	-0.566124	0.283616	-0.125527	0	0	0.047366	0.0495148	-0.0300327	-0.0130324	-0.337475	1.14713	0.337355	0.714765	0	0	-0.0152976	-0.247081	0.68607	0.224159	0.76483	0	0
95.2	-1.56689	1.33375	1.00021	0.995507	-0.729635	0.990841	0.0303246	0.0417841	-0.612664	0.270148	-0.0812981	0	0	0.481881	-0.106538	-0.560509	0.296592	-0.124075	0	0	0.040009	0.0389591	-0.0323037	-0.0105931	-0.326363	1.13379	0.32153	0.725038	0	0	-0.0140104	-0.247801	0.682209	0.217922	0.774251	0	0
95.21	-1.5441	1.33868	0.997468	1.00309	-0.728456	0.991359	0.0343563	0.0287399	-0.611467	0.313213	-0.0830357	0	0	0.475481	-0.0999099	-0.555912	0.30813	-0.122842	0	0	0.0322094	0.0302876	-0.0337632	-0.00834892	-0.317056	1.11951	0.308188	0.736474	0	0	-0.011779	-0.247832	0.684885	0.211053	0.77834	0	0
95.22	-1.51768	1.34281	0.991116	1.01081	-0.727108	0.991962	0.0399122	0.0157646	-0.608073	0.359213	-0.0887001	0	0	0.467834	-0.094177	-0.552827	0.316546	-0.12165	0	0	0.0247685	0.0234391	-0.0347707	-0.00685336	-0.308484	1.09829	0.295858	0.755639	0	0	-0.00866291	-0.246576	0.69269	0.202196	0.779767	0	0
95.23	-1.48751	1.34617	0.98049	1.01844	-0.725522	0.992593	0.047615	0.00292087	-0.601185	0.408546	-0.0976328	0	0	0.460152	-0.0898582	-0.549117	0.324526	-0.120038	0	0	0.0179156	0.0188824	-0.032685	-0.00648813	-0.30157	1.07316	0.285599	0.777376	0	0	-0.00343861	-0.244142	0.706321	0.192247	0.778343	0	0
